<svg width="17" height="18" viewBox="0 0 17 18" fill="none" xmlns="http://www.w3.org/2000/svg">
<path d="M0.5 3C0.5 2.73478 0.605357 2.48043 0.792893 2.29289C0.98043 2.10536 1.23478 2 1.5 2H15.5C15.7652 2 16.0196 2.10536 16.2071 2.29289C16.3946 2.48043 16.5 2.73478 16.5 3V7H0.5V3Z" stroke="#525675" stroke-linejoin="round"/>
<path d="M4.5 3.5V0.5M12.5 3.5V0.5" stroke="#525675" stroke-linecap="round"/>
<path d="M0.5 7H16.5V16C16.5 16.2652 16.3946 16.5196 16.2071 16.7071C16.0196 16.8946 15.7652 17 15.5 17H1.5C1.23478 17 0.98043 16.8946 0.792893 16.7071C0.605357 16.5196 0.5 16.2652 0.5 16V7Z" stroke="#525675" stroke-linejoin="round"/>
</svg>
