<svg width="67" height="12" viewBox="0 0 67 12" fill="none" xmlns="http://www.w3.org/2000/svg">
<path d="M2.267 11.82C2.467 11.793 2.66798 11.767 2.86798 11.74C3.25198 11.632 3.58397 11.438 3.86697 11.157C5.32697 10.004 6.78899 8.85201 8.19199 7.63C8.79699 7.10201 9.38998 6.561 9.97598 6.013C10.042 5.951 10.109 5.889 10.174 5.826C10.367 6.032 10.554 6.24301 10.743 6.45001C11.07 6.80901 11.42 7.151 11.77 7.487C12.523 8.209 13.294 8.91 14.107 9.565C14.408 9.807 14.713 10.047 15.025 10.273C15.308 10.479 15.611 10.599 15.94 10.731C16.498 10.956 17.233 10.81 17.791 10.687C18.242 10.588 18.69 10.368 19.109 10.19C19.317 10.101 19.529 10.013 19.731 9.91C20.037 9.754 20.344 9.597 20.651 9.44C21.516 8.997 22.355 8.49201 23.196 8.00601C24.124 7.47201 25.05 6.934 25.977 6.399C26.416 6.145 26.855 5.89201 27.303 5.65401C27.366 5.62101 27.429 5.588 27.491 5.556C27.618 5.713 27.742 5.87101 27.868 6.02701C28.172 6.40601 28.485 6.77601 28.804 7.14301C29.353 7.77501 29.95 8.36301 30.489 9.00301C30.598 9.15701 30.7 9.314 30.789 9.479C30.869 9.694 30.956 9.908 31.087 10.093C31.237 10.303 31.397 10.506 31.562 10.704C31.974 11.198 32.694 11.508 33.341 11.488C34.268 11.459 35.1 11.064 35.916 10.654C36.28 10.47 36.628 10.26 36.977 10.049C37.873 9.51001 38.731 8.909 39.588 8.311C40.413 7.735 41.23 7.15001 42.083 6.61501C42.68 6.24101 43.276 5.866 43.866 5.481C44.066 5.702 44.264 5.92601 44.463 6.14201C44.893 6.60901 45.334 7.06701 45.788 7.51001C46.279 7.99001 46.78 8.46 47.27 8.94C47.657 9.319 48.055 9.69501 48.415 10.102C48.429 10.125 48.444 10.148 48.457 10.172C48.486 10.223 48.513 10.277 48.543 10.328C48.756 10.704 49.045 10.97 49.402 11.204C50.532 11.944 51.838 11.37 52.912 10.856C53.4 10.623 53.874 10.352 54.346 10.088C55.218 9.60201 56.079 9.09701 56.947 8.60701C57.823 8.11301 58.709 7.641 59.601 7.175C60.53 6.689 61.442 6.17401 62.359 5.66501C63.048 5.28201 63.742 4.91301 64.458 4.58801C64.585 4.54101 64.713 4.49601 64.843 4.45601C65.411 4.28001 65.891 3.935 66.195 3.416C66.501 2.893 66.584 2.25601 66.423 1.67101C66.158 0.706005 65.223 0 64.237 0C64.038 0 63.837 0.0290116 63.638 0.0900116C62.468 0.452012 61.367 1.049 60.296 1.634C59.403 2.122 58.524 2.63301 57.623 3.10501C55.794 4.06301 53.997 5.071 52.206 6.099C51.915 6.266 51.622 6.432 51.325 6.591C51.322 6.588 51.319 6.58501 51.316 6.58101C50.953 6.20801 50.58 5.843 50.206 5.481C49.466 4.765 48.723 4.058 48.015 3.311C47.666 2.943 47.324 2.568 46.979 2.196C46.804 2.007 46.625 1.82001 46.446 1.63501C46.31 1.49301 46.167 1.36 46.016 1.233C45.82 1.07 45.599 0.899013 45.381 0.754013C44.973 0.483013 44.527 0.44101 44.056 0.39801C43.586 0.35401 43.022 0.60001 42.646 0.85701C42.566 0.91201 42.486 0.967011 42.406 1.02101C42.202 1.15901 41.997 1.295 41.793 1.431C41.393 1.697 40.988 1.95401 40.581 2.21101C40.026 2.56101 39.468 2.90601 38.922 3.27101C38.349 3.65301 37.789 4.057 37.225 4.451C36.238 5.14 35.244 5.84501 34.191 6.43701C33.842 5.98301 33.485 5.54501 33.096 5.12401C32.41 4.38001 31.726 3.643 31.093 2.854C30.687 2.349 30.295 1.823 29.805 1.395C29.615 1.229 29.36 1.02801 29.125 0.894012C28.8 0.710012 28.265 0.52601 27.885 0.55101C27.838 0.55401 27.79 0.557013 27.743 0.560013C27.334 0.561013 26.954 0.664003 26.601 0.869003C26.487 0.922003 26.381 0.978006 26.274 1.04401C26.038 1.19001 25.801 1.33201 25.555 1.46201C24.732 1.89701 23.924 2.351 23.12 2.817C22.133 3.388 21.146 3.959 20.157 4.526C19.18 5.086 18.199 5.658 17.172 6.123C17.137 6.136 17.102 6.149 17.067 6.162C16.464 5.669 15.881 5.15301 15.318 4.61401C14.535 3.86301 13.803 3.07201 13.054 2.28801C12.59 1.80301 12.027 1.37401 11.437 1.05501C11.009 0.823008 10.431 0.609001 9.92999 0.651001C9.50199 0.687001 9.11497 0.739012 8.74197 0.978012C8.54297 1.10601 8.355 1.25601 8.177 1.41101C7.85 1.69801 7.56697 2.04201 7.25497 2.34601C6.52097 3.06101 5.76198 3.752 4.98898 4.425C3.58498 5.647 2.124 6.79901 0.664001 7.95201C0.546001 8.10501 0.42799 8.258 0.30899 8.41C0.10399 8.763 0.001 9.144 0 9.552C0 10.15 0.239994 10.731 0.662994 11.153C1.08799 11.58 1.668 11.82 2.267 11.82Z" fill="#DCA0E1"/>
</svg>
