<?xml version="1.0" encoding="UTF-8"?>
<svg id="Layer_2" data-name="Layer 2" xmlns="http://www.w3.org/2000/svg" viewBox="0 0 179.75 229.61">
  <defs>
    <style>
      .cls-1 {
        fill: #bbcaea;
      }

      .cls-2 {
        fill: #6c7bd3;
      }
    </style>
  </defs>
  <g id="Layer_1-2" data-name="Layer 1">
    <g>
      <g>
        <path class="cls-1" d="M89.93,38.53c8.05,10.33,22.06,22.55,22.06,38.73,0,12.58-9.88,21.3-22.06,21.3-12.19,0-22.06-8.71-22.06-21.3,0-16.18,14.02-28.4,22.06-38.73Z"/>
        <path class="cls-2" d="M89.93,35.52c2.18.9,4.02,3.09,5.48,4.9,1.07,1.25,2.17,2.48,3.28,3.73,6.95,7.84,13.96,16.2,16.71,26.68,4.4,17.2-7.75,32.73-25.48,32.75-17.74-.03-29.84-15.54-25.5-32.75,2.69-10.5,9.66-18.94,16.68-26.72,1.12-1.24,2.23-2.47,3.31-3.71,1.48-1.78,3.32-3.99,5.51-4.87h0ZM89.93,41.54c.13.43.55.76.78.88,0,0-1.6,1.95-1.6,1.95-5.03,6.16-10.64,12.44-14.02,19.59-4.88,9.99-4.3,23.3,7.18,28.03,7.1,3.06,16.39,1.54,21.5-4.45,3.64-4.02,4.44-9.86,3.66-15.12-1.57-11-9.75-19.75-16.65-28.07,0,0-1.61-1.94-1.61-1.94-.01-.03.09-.05.26-.18.17-.12.38-.37.5-.69h0Z"/>
      </g>
      <g>
        <path class="cls-2" d="M150.94,87.05l-12.86-17.08c-2.17-2.88-.11-7.01,3.49-7.01h25.73c3.61,0,5.66,4.12,3.49,7.01l-12.86,17.08c-1.75,2.32-5.24,2.32-6.99,0Z"/>
        <path class="cls-2" d="M29.9,35.3c29.61-52.23,106.02-44.86,126.4,11.32,2.63,7.3,3.99,15.05,4.16,22.83.07,3.33-2.56,6.09-5.89,6.16-3.42.08-6.24-2.74-6.16-6.16.09-6.48-.79-13.01-2.78-19.22C135.25,16.96,97.74-.48,65.4,12.4c-12.53,4.9-23.49,14.08-30.53,25.78-1.96,3.12-6.7.46-4.97-2.87h0Z"/>
        <path class="cls-2" d="M27.13,51.84l12.86,17.08c2.17,2.88.11,7.01-3.49,7.01H10.77c-3.61,0-5.66-4.12-3.49-7.01l12.86-17.08c1.75-2.32,5.24-2.32,6.99,0Z"/>
        <path class="cls-2" d="M148.21,103.61c-29.63,52.24-106.08,44.87-126.45-11.34-2.63-7.3-3.99-15.05-4.16-22.83-.07-3.33,2.57-6.08,5.89-6.16,3.42-.08,6.24,2.74,6.16,6.16-.09,6.48.8,13,2.78,19.22,10.38,33.25,47.89,50.67,80.21,37.8,12.52-4.9,23.47-14.08,30.51-25.77,2-3.18,6.82-.47,5.06,2.92h0Z"/>
      </g>
    </g>
    <g>
      <g>
        <circle class="cls-2" cx="172.83" cy="162.83" r="3.01"/>
        <path class="cls-2" d="M158.12,174.93c-2.08,0-3.77-1.69-3.77-3.77s1.69-3.77,3.77-3.77,3.77,1.69,3.77,3.77-1.69,3.77-3.77,3.77Z"/>
        <path class="cls-2" d="M143.41,183.79c-2.37,0-4.3-1.92-4.3-4.3s1.92-4.3,4.3-4.3,4.3,1.92,4.3,4.3-1.92,4.3-4.3,4.3Z"/>
        <circle class="cls-2" cx="128.7" cy="187.83" r="4.66" transform="translate(-95.12 146.02) rotate(-45)"/>
        <circle class="cls-2" cx="114" cy="196.17" r="4.89"/>
        <circle class="cls-2" cx="98.28" cy="202.16" r="4.99"/>
        <circle class="cls-2" cx="81.46" cy="202.16" r="4.99" transform="translate(-71.16 46.56) rotate(-22.5)"/>
        <circle class="cls-2" cx="65.75" cy="196.16" r="4.89" transform="translate(-70.06 40.09) rotate(-22.5)"/>
        <circle class="cls-2" cx="51.04" cy="187.83" r="4.66" transform="translate(-117.86 91.1) rotate(-45)"/>
        <circle class="cls-2" cx="36.33" cy="179.49" r="4.3"/>
        <path class="cls-2" d="M21.62,174.93c-2.08,0-3.77-1.69-3.77-3.77s1.69-3.77,3.77-3.77,3.77,1.69,3.77,3.77-1.69,3.77-3.77,3.77Z"/>
        <circle class="cls-2" cx="6.92" cy="162.83" r="3.01"/>
      </g>
      <path class="cls-2" d="M158.04,118.61c5.49,2.82,10.97,5.68,16.42,8.56.08.05.12.06.24.13l.33.2.65.42c5.78,4,5.32,13.21-.79,16.7-1.63,1-4.62,2.74-6.31,3.75-15.28,9.09-31.74,18.7-47.09,27.55-3.48,1.97-6.97,4.16-10.67,5.82-11.78,5.41-25.67,6.01-37.87,1.61-5.19-1.77-9.97-4.73-14.67-7.43-15.34-8.84-31.84-18.47-47.09-27.55-1.55-.94-4.73-2.79-6.31-3.75-6.38-3.67-6.57-13.38-.15-17.12.76-.46,2.33-1.26,3.15-1.69,4.6-2.43,9.21-4.82,13.83-7.2,1.48-.76,3.3-.18,4.06,1.3.72,1.4.22,3.12-1.09,3.94-5.3,3.3-10.64,6.56-15.97,9.8-1.39.85-1.46,3.14.01,3.92,0,0,13.42,7.25,13.42,7.25,15.66,8.48,32.24,17.67,47.74,26.32,6.09,3.37,13.04,5.1,19.99,5.11,5.21-.02,10.42-.97,15.28-2.89,3.18-1.1,8.47-4.41,11.48-6,17.51-9.75,36.68-20.27,54.39-29.79,1.46-.78,1.42-3.07.01-3.92-.02-.02-.13-.08-.18-.12l-.83-.51c-5-3.03-9.99-6.09-14.95-9.18-3.23-2.09-.44-6.91,2.97-5.24h0Z"/>
      <path class="cls-2" d="M178.97,179.29c.08,3.11-1.62,6.28-4.27,7.93l-5.35,3.33c-10.31,6.33-21.56,13.18-31.93,19.25-8.13,4.77-16.12,9.57-24.37,14.14-7.13,3.67-15.16,5.62-23.19,5.65-9.12-.02-18.28-2.61-26.09-7.27-14.34-8.31-28.62-16.7-42.79-25.3l-10.6-6.5-5.37-3.35c-1.31-.85-2.44-2.07-3.17-3.47-1.4-2.53-1.94-7.35,2.03-7.43,1.53.03,2.77,1.2,2.93,2.69.08,1.16.71,2.13,1.67,2.57,3.33,1.68,12.98,6.74,16.45,8.54,14.65,7.74,29.2,15.67,43.69,23.7,6.48,3.72,13.78,5.82,21.26,5.78,7.48.05,14.77-2.04,21.26-5.75,14.49-8.03,29.04-15.97,43.69-23.7l11.02-5.75,5.45-2.8c.97-.43,1.62-1.41,1.69-2.56.48-3.68,5.88-3.43,6,.31h0Z"/>
    </g>
  </g>
</svg>