<?xml version="1.0" encoding="UTF-8"?>
<svg id="Layer_2" data-name="Layer 2" xmlns="http://www.w3.org/2000/svg" viewBox="0 0 179.75 231.48">
  <defs>
    <style>
      .cls-1 {
        fill: #bbcaea;
      }

      .cls-2 {
        fill: #6c7bd3;
      }
    </style>
  </defs>
  <g id="Layer_1-2" data-name="Layer 1">
    <g>
      <g>
        <path class="cls-1" d="M89.88,94.85c7.55,9.68,20.69,21.14,20.69,36.31,0,11.8-9.26,19.97-20.69,19.97-11.43,0-20.69-8.17-20.69-19.97,0-15.17,13.14-26.63,20.69-36.31Z"/>
        <path class="cls-2" d="M89.88,91.83c2.1.84,3.88,2.93,5.28,4.66,0,0,3.08,3.5,3.08,3.5,6.55,7.37,13.14,15.23,15.77,25.09,4.2,16.3-7.34,31.06-24.14,31.07-16.82-.03-28.3-14.76-24.16-31.08,2.55-9.9,9.16-17.78,15.75-25.13l3.1-3.48c1.42-1.71,3.2-3.82,5.31-4.63h0ZM89.88,97.86c.16.39.59.75.87.76-.92,1.14-3.52,4.27-4.49,5.45-5.48,6.69-11.26,13.94-12.51,22.62-1.88,10.75,5.17,19.42,16.14,19.42,10.98-.02,17.98-8.67,16.16-19.43-1.16-8.71-6.97-15.99-12.49-22.66-.98-1.16-3.58-4.28-4.52-5.42.26-.02.7-.36.85-.74h0Z"/>
      </g>
      <g>
        <path class="cls-1" d="M138.65,66.59c6.31,8.1,17.3,17.68,17.3,30.37,0,9.87-7.75,16.7-17.3,16.7-9.56,0-17.3-6.83-17.3-16.7,0-12.69,10.99-22.27,17.3-30.37Z"/>
        <path class="cls-2" d="M138.65,64.07c1.68.64,3.27,2.45,4.42,3.9.84.98,1.7,1.95,2.58,2.93,5.48,6.17,11,12.74,13.19,20.99,3.54,13.59-6.17,26.01-20.19,25.99-14.03,0-23.7-12.39-20.21-25.99,2.13-8.28,7.66-14.87,13.17-21.02,0,0,2.59-2.91,2.59-2.91,1.16-1.42,2.76-3.26,4.44-3.88h0ZM138.65,69.11c.24.56.74.65.73.64-.76.95-2.95,3.57-3.76,4.56-4.56,5.5-9.55,12-10.47,18.92-1.59,8.95,4.36,16.27,13.5,16.25,9.14.01,15.06-7.29,13.51-16.25-.97-7.29-5.83-13.37-10.45-18.95-.82-.96-3-3.58-3.79-4.53-.02.02.48-.07.72-.63h0Z"/>
      </g>
      <g>
        <path class="cls-1" d="M41.1,66.59c6.31,8.1,17.3,17.68,17.3,30.37,0,9.87-7.75,16.7-17.3,16.7-9.56,0-17.3-6.83-17.3-16.7,0-12.69,10.99-22.27,17.3-30.37Z"/>
        <path class="cls-2" d="M41.1,64.07c1.68.64,3.27,2.45,4.42,3.9.84.98,1.7,1.95,2.58,2.93,5.48,6.17,11,12.74,13.19,20.99,3.54,13.59-6.17,26.01-20.19,25.99-14.03,0-23.7-12.39-20.21-25.99,2.13-8.28,7.66-14.87,13.17-21.02,0,0,2.59-2.91,2.59-2.91,1.16-1.42,2.76-3.26,4.44-3.88h0ZM41.1,69.11c.24.56.74.65.73.64-.76.95-2.95,3.57-3.76,4.56-4.56,5.5-9.55,12-10.47,18.92-1.59,8.95,4.36,16.27,13.5,16.25,9.14.01,15.06-7.29,13.51-16.25-.97-7.29-5.83-13.37-10.45-18.95-.82-.96-3-3.58-3.79-4.53-.02.02.48-.07.72-.63h0Z"/>
      </g>
      <path class="cls-2" d="M158.04,120.49c5.49,2.82,10.97,5.68,16.42,8.56.08.05.12.06.24.13l.33.2.65.42c5.78,4,5.32,13.21-.79,16.7-1.63,1-4.62,2.74-6.31,3.75-15.27,9.09-31.74,18.7-47.09,27.55-3.48,1.97-6.97,4.16-10.67,5.82-11.78,5.41-25.67,6.01-37.87,1.61-5.19-1.77-9.97-4.73-14.67-7.43-15.34-8.84-31.84-18.47-47.09-27.55-1.55-.94-4.73-2.79-6.31-3.75-6.38-3.67-6.57-13.38-.15-17.12.76-.46,2.33-1.26,3.15-1.69,4.6-2.43,9.21-4.82,13.83-7.2,1.48-.76,3.3-.18,4.06,1.3.72,1.4.22,3.12-1.09,3.94-5.3,3.3-10.64,6.56-15.97,9.8-1.39.85-1.46,3.14.01,3.92,0,0,13.42,7.25,13.42,7.25,15.66,8.48,32.24,17.67,47.74,26.32,6.09,3.37,13.04,5.1,19.99,5.11,5.21-.02,10.42-.97,15.28-2.89,3.18-1.1,8.47-4.41,11.48-6,17.51-9.75,36.68-20.27,54.39-29.79,1.46-.78,1.42-3.07.01-3.92-.02-.02-.13-.08-.18-.12l-.83-.51c-5-3.03-9.99-6.09-14.95-9.18-3.23-2.09-.44-6.91,2.97-5.24h0Z"/>
      <path class="cls-2" d="M178.97,181.17c.08,3.11-1.62,6.28-4.27,7.93,0,0-5.35,3.33-5.35,3.33-10.31,6.33-21.56,13.18-31.93,19.25-8.13,4.77-16.12,9.57-24.37,14.14-7.13,3.67-15.16,5.62-23.19,5.65-9.12-.02-18.28-2.61-26.09-7.27-14.34-8.31-28.62-16.7-42.79-25.3l-10.6-6.5-5.37-3.35c-1.31-.85-2.44-2.07-3.17-3.47-1.4-2.53-1.94-7.35,2.03-7.43,1.53.03,2.77,1.2,2.93,2.69.08,1.16.71,2.13,1.67,2.57,3.33,1.68,12.98,6.74,16.45,8.54,14.65,7.74,29.2,15.67,43.69,23.7,6.48,3.72,13.78,5.82,21.26,5.78,7.48.05,14.77-2.04,21.26-5.75,14.49-8.03,29.04-15.97,43.69-23.7,0,0,11.02-5.75,11.02-5.75l5.45-2.8c.97-.43,1.62-1.41,1.69-2.56.48-3.68,5.88-3.43,6,.31h0Z"/>
      <path class="cls-2" d="M86.15,75.6l-13.73-18.22c-2.32-3.08-.12-7.48,3.73-7.48h27.45c3.85,0,6.04,4.4,3.73,7.48l-13.73,18.22c-1.87,2.48-5.59,2.48-7.46,0Z"/>
      <path class="cls-2" d="M92.89,15.93l3.01,37.59c.27,8.64-12.31,8.65-12.05,0l3.01-37.59c.35-3.67,5.68-3.66,6.03,0h0Z"/>
      <path class="cls-2" d="M135.77,48.34l-10.63-14.11c-1.79-2.38-.09-5.79,2.89-5.79h21.26c2.98,0,4.68,3.41,2.89,5.79l-10.63,14.11c-1.45,1.92-4.33,1.92-5.77,0Z"/>
      <path class="cls-2" d="M140.99,2.13l2.33,29.11c.23,6.68-9.56,6.69-9.33,0,0,0,2.33-29.11,2.33-29.11.27-2.84,4.4-2.84,4.67,0h0Z"/>
      <path class="cls-2" d="M38.21,48.34l-10.63-14.11c-1.79-2.38-.09-5.79,2.89-5.79h21.26c2.98,0,4.68,3.41,2.89,5.79l-10.63,14.11c-1.45,1.92-4.33,1.92-5.77,0Z"/>
      <path class="cls-2" d="M43.43,2.13l2.33,29.11c.23,6.68-9.56,6.69-9.33,0,0,0,2.33-29.11,2.33-29.11.27-2.84,4.4-2.84,4.67,0h0Z"/>
    </g>
  </g>
</svg>