<?xml version="1.0" encoding="UTF-8"?>
<svg id="Layer_2" data-name="Layer 2" xmlns="http://www.w3.org/2000/svg" viewBox="0 0 185.14 259.46">
  <defs>
    <style>
      .cls-1 {
        fill: #6c7bd3;
      }
    </style>
  </defs>
  <g id="Layer_1-2" data-name="Layer 1">
    <g>
      <g>
        <path class="cls-1" d="M163.43,87.54c5.49,2.82,10.97,5.68,16.42,8.56.08.05.12.06.24.13l.33.2.65.42c5.78,4,5.32,13.21-.79,16.7-1.63,1-4.62,2.74-6.31,3.75-15.28,9.09-31.74,18.7-47.09,27.55-3.48,1.97-6.97,4.16-10.67,5.82-11.78,5.41-25.67,6.01-37.87,1.61-5.19-1.77-9.97-4.73-14.67-7.43-15.34-8.84-31.84-18.47-47.09-27.55-1.55-.94-4.73-2.79-6.31-3.75-6.38-3.67-6.57-13.38-.15-17.12.76-.46,2.33-1.26,3.15-1.69,4.6-2.43,9.21-4.82,13.83-7.2,1.48-.76,3.3-.18,4.06,1.3.72,1.4.22,3.12-1.09,3.94-5.3,3.3-10.64,6.56-15.97,9.8-1.39.85-1.46,3.14.01,3.92,0,0,13.42,7.25,13.42,7.25,15.66,8.48,32.24,17.67,47.74,26.32,6.09,3.36,13.04,5.1,19.99,5.11,5.21-.03,10.42-.97,15.28-2.89,3.18-1.1,8.47-4.41,11.48-6,17.51-9.75,36.68-20.27,54.39-29.79,1.46-.78,1.42-3.07.01-3.92-.02-.02-.13-.08-.18-.12l-.83-.51c-5-3.03-9.99-6.09-14.95-9.18-3.23-2.09-.44-6.91,2.97-5.24h0Z"/>
        <path class="cls-1" d="M184.36,148.23c.08,3.11-1.62,6.28-4.27,7.93,0,0-5.35,3.33-5.35,3.33-10.31,6.33-21.56,13.18-31.93,19.25-8.13,4.77-16.12,9.57-24.37,14.14-7.13,3.67-15.16,5.62-23.19,5.65-9.12-.02-18.28-2.61-26.09-7.27-14.34-8.31-28.62-16.7-42.79-25.3l-10.6-6.5-5.37-3.35c-1.31-.85-2.44-2.07-3.17-3.47-1.4-2.53-1.94-7.35,2.03-7.43,1.53.03,2.77,1.2,2.93,2.69.08,1.16.71,2.13,1.67,2.57,3.33,1.68,12.98,6.74,16.45,8.54,14.65,7.74,29.2,15.67,43.69,23.7,6.48,3.72,13.78,5.82,21.26,5.78,7.48.05,14.77-2.04,21.26-5.75,14.49-8.03,29.04-15.97,43.69-23.7l11.02-5.75,5.45-2.8c.97-.43,1.62-1.41,1.69-2.56.48-3.68,5.88-3.43,6,.31h0Z"/>
        <g>
          <path class="cls-1" d="M178.22,134.78c-1.66,0-3.01-1.35-3.01-3.01s1.35-3.01,3.01-3.01,3.01,1.35,3.01,3.01-1.35,3.01-3.01,3.01Z"/>
          <path class="cls-1" d="M163.51,143.87c-2.08,0-3.77-1.69-3.77-3.77s1.69-3.77,3.77-3.77,3.77,1.69,3.77,3.77-1.69,3.77-3.77,3.77Z"/>
          <circle class="cls-1" cx="148.81" cy="148.43" r="4.3"/>
          <path class="cls-1" d="M134.1,161.43c-2.58,0-4.66-2.09-4.66-4.66s2.09-4.66,4.66-4.66,4.66,2.09,4.66,4.66-2.09,4.66-4.66,4.66Z"/>
          <circle class="cls-1" cx="119.39" cy="165.1" r="4.89"/>
          <path class="cls-1" d="M103.67,176.09c-2.75,0-4.99-2.23-4.99-4.99s2.23-4.99,4.99-4.99,4.99,2.23,4.99,4.99-2.23,4.99-4.99,4.99Z"/>
          <circle class="cls-1" cx="86.86" cy="171.1" r="4.99"/>
          <circle class="cls-1" cx="71.14" cy="165.1" r="4.89"/>
          <circle class="cls-1" cx="56.43" cy="156.77" r="4.66"/>
          <circle class="cls-1" cx="41.72" cy="148.43" r="4.3"/>
          <circle class="cls-1" cx="27.02" cy="140.1" r="3.77"/>
          <path class="cls-1" d="M12.31,134.78c-1.66,0-3.01-1.35-3.01-3.01s1.35-3.01,3.01-3.01,3.01,1.35,3.01,3.01-1.35,3.01-3.01,3.01Z"/>
        </g>
      </g>
      <path class="cls-1" d="M92.7,118.2l-2.85-102.06c-.09-3.31,2.52-6.08,5.83-6.17,3.31-.09,6.08,2.52,6.17,5.83.05.06-2.87,102.24-2.85,102.39-.19,4.01-6.09,4.07-6.3,0h0Z"/>
      <path class="cls-1" d="M92.81,256.62l-2.46-40.53c-.18-3.04,2.13-5.65,5.17-5.83,3.27-.22,6.05,2.56,5.83,5.83l-2.46,40.53c-.3,3.78-5.79,3.78-6.09,0h0Z"/>
      <path class="cls-1" d="M61.45,103.87c-1.6-22.81-5.17-81-27.47-91.71-4.9-2.15-12.02-.93-16.12,2.56-3.13,2.58-5.3,6.87-5.6,10.96-.23,3.85,1.11,7.74,4.18,10.17,3.56,2.97,10.06,4.5,14.23,2.1,7.52-4.4,14.14,6.25,6.86,11.05-9.4,5.38-21.2,3.11-29.21-3.54C3.34,41.29.26,34.84.03,28.37-.36,19.61,3.73,11.08,10.62,5.64,18.36-.33,29.48-1.75,38.38,2.29c18.47,8.97,23.98,36.22,26.84,54.56,2.25,15.55,2.84,31.21,2.73,46.86-.12,4.13-6.17,4.34-6.5.16h0Z"/>
      <path class="cls-1" d="M43.41,236.78c5.45-10.28,9.43-21.18,10.89-32.66,1.22-6.94,11.33-4.95,9.81,1.95-3.09,12.1-8.86,23.48-15.97,33.58-2.01,2.79-6.28.21-4.73-2.87h0Z"/>
      <path class="cls-1" d="M143.56,239.65c-7.1-10.1-12.88-21.47-15.97-33.58-.72-2.68.89-5.44,3.57-6.14,2.89-.78,5.86,1.23,6.24,4.19.75,5.64,2.04,11.21,3.89,16.65,1.85,5.45,4.26,10.77,7,16.01,1.55,3.08-2.72,5.66-4.73,2.87h0Z"/>
      <path class="cls-1" d="M123.83,102.6c1.23-23.16,2.58-71.81,27.53-82.08,7.59-2.92,16.49-2.2,23.13,2.9,14.72,11.96,10.26,35.91-8.86,39.95-4.16.9-8.58.84-13.01-.76-8.01-3.17-3.85-14.86,4.36-12.26,3.34,1.62,8.73.79,11.49-1.83,3.07-2.63,3.65-7.56,2.54-11.37-1.78-6.89-9.78-9.72-16.15-7.41-7.67,2.95-11.58,10.77-14.72,18.53-6.42,17.38-8.25,36.15-9.81,54.69-.41,4.16-6.52,3.88-6.49-.37h0Z"/>
    </g>
  </g>
</svg>