<?xml version="1.0" encoding="UTF-8"?>
<svg id="Layer_2" data-name="Layer 2" xmlns="http://www.w3.org/2000/svg" viewBox="0 0 179.75 239.93">
  <defs>
    <style>
      .cls-1 {
        fill: #bbcaea;
      }

      .cls-2 {
        fill: #6c7bd3;
      }
    </style>
  </defs>
  <g id="Layer_1-2" data-name="Layer 1">
    <g>
      <g>
        <g>
          <path class="cls-2" d="M172.83,176.17c-1.66,0-3.01-1.35-3.01-3.01s1.35-3.01,3.01-3.01,3.01,1.35,3.01,3.01-1.35,3.01-3.01,3.01Z"/>
          <path class="cls-2" d="M158.12,185.26c-2.08,0-3.77-1.69-3.77-3.77s1.69-3.77,3.77-3.77,3.77,1.69,3.77,3.77-1.69,3.77-3.77,3.77Z"/>
          <path class="cls-2" d="M143.41,194.12c-2.37,0-4.3-1.92-4.3-4.3s1.92-4.3,4.3-4.3,4.3,1.92,4.3,4.3-1.92,4.3-4.3,4.3Z"/>
          <path class="cls-2" d="M128.7,202.82c-2.58,0-4.66-2.09-4.66-4.66s2.09-4.66,4.66-4.66,4.66,2.09,4.66,4.66-2.09,4.66-4.66,4.66Z"/>
          <circle class="cls-2" cx="114" cy="206.49" r="4.89"/>
          <path class="cls-2" d="M98.28,217.47c-2.75,0-4.99-2.23-4.99-4.99s2.23-4.99,4.99-4.99,4.99,2.23,4.99,4.99-2.23,4.99-4.99,4.99Z"/>
          <circle class="cls-2" cx="81.46" cy="212.49" r="4.99"/>
          <path class="cls-2" d="M65.75,211.37c-2.7,0-4.89-2.19-4.89-4.89s2.19-4.89,4.89-4.89,4.89,2.19,4.89,4.89-2.19,4.89-4.89,4.89Z"/>
          <path class="cls-2" d="M51.04,202.82c-2.57,0-4.66-2.09-4.66-4.66s2.09-4.66,4.66-4.66,4.66,2.09,4.66,4.66-2.09,4.66-4.66,4.66Z"/>
          <circle class="cls-2" cx="36.33" cy="189.82" r="4.3"/>
          <path class="cls-2" d="M21.62,185.25c-2.08,0-3.77-1.69-3.77-3.77s1.69-3.77,3.77-3.77,3.77,1.69,3.77,3.77-1.69,3.77-3.77,3.77Z"/>
          <path class="cls-2" d="M6.92,176.17c-1.66,0-3.01-1.35-3.01-3.01s1.35-3.01,3.01-3.01,3.01,1.35,3.01,3.01-1.35,3.01-3.01,3.01Z"/>
        </g>
        <path class="cls-2" d="M158.04,128.93c5.49,2.82,10.97,5.68,16.42,8.56.08.05.12.06.24.13l.33.2.65.42c5.78,4,5.32,13.21-.79,16.7-1.63,1-4.62,2.74-6.31,3.75-15.27,9.09-31.74,18.7-47.09,27.55-3.48,1.97-6.97,4.16-10.67,5.82-11.78,5.41-25.67,6.01-37.87,1.61-5.19-1.77-9.97-4.73-14.67-7.43-15.34-8.84-31.84-18.47-47.09-27.55-1.55-.94-4.73-2.79-6.31-3.75-6.38-3.67-6.57-13.38-.15-17.12.76-.46,2.33-1.26,3.15-1.69,4.6-2.43,9.21-4.82,13.83-7.2,1.48-.76,3.3-.18,4.06,1.3.72,1.4.22,3.12-1.09,3.94-5.3,3.3-10.64,6.56-15.97,9.8-1.39.85-1.46,3.14.01,3.92l13.42,7.25c15.66,8.48,32.24,17.67,47.74,26.32,6.09,3.36,13.04,5.1,19.99,5.11,5.21-.03,10.42-.97,15.28-2.89,3.18-1.1,8.47-4.41,11.48-6,17.51-9.75,36.68-20.27,54.39-29.79,1.46-.78,1.42-3.07.01-3.92-.02-.02-.13-.08-.18-.12l-.83-.51c-5-3.03-9.99-6.09-14.95-9.18-3.23-2.09-.44-6.91,2.97-5.24h0Z"/>
        <path class="cls-2" d="M178.97,189.62c.08,3.11-1.62,6.28-4.27,7.93,0,0-5.35,3.33-5.35,3.33-10.31,6.33-21.56,13.18-31.93,19.25-8.13,4.77-16.12,9.57-24.37,14.14-7.13,3.67-15.16,5.62-23.19,5.65-9.12-.02-18.28-2.61-26.09-7.27-14.34-8.31-28.62-16.7-42.79-25.3l-10.6-6.5-5.37-3.35c-1.31-.85-2.44-2.07-3.17-3.47-1.4-2.53-1.94-7.35,2.03-7.43,1.53.03,2.77,1.2,2.93,2.69.08,1.16.71,2.13,1.67,2.57,3.33,1.68,12.98,6.74,16.45,8.54,14.65,7.74,29.2,15.67,43.69,23.7,6.48,3.72,13.78,5.82,21.26,5.78,7.48.05,14.77-2.04,21.26-5.75,14.49-8.03,29.04-15.97,43.69-23.7,0,0,11.02-5.75,11.02-5.75l5.45-2.8c.97-.43,1.62-1.41,1.69-2.56.48-3.68,5.88-3.43,6,.31h0Z"/>
      </g>
      <g>
        <path class="cls-1" d="M73.66,146.8c10.52,5.7,37.38-1.12,44.72-7.8-4.93-1.66-13.84-7.33-15.48-10.31,1.5-.44,16.74.89,26.96-4.09,14.59-8.09,36.82-27.46,42.46-66.45,4.18-28.92-7.19-51.27-17.68-53.46-11.08-2.31-52.39,18.22-51.13,63.81-4.67.06-9.06-9.68-9.33-16.59-15.4,13.18-25,38.03-18.35,56.4-5.15,1.19-11.38-4.08-13.43-10.33-5.79,8.19-9.32,20.47-5.79,29.26"/>
        <path class="cls-2" d="M74.89,144.54c9.78,4.23,32.64-1.89,40.55-8.77,0,0,1.55,7.39,1.55,7.38-3.51-1.04-24.66-15.25-13.78-17.24,9.88-.87,20.55-.92,28.87-6.93,26.09-17.09,40.1-50.02,36.93-80.78-1.27-9.6-4.2-19.84-11.16-26.71-3.48-3.45-6.59-2.51-10.57-1.26-18.13,6.42-34.21,24.25-39.36,42.81-1.38,4.99-1.83,10.22-1.41,15.39.13,1.69-1.27,3.14-2.96,3.08,0,0,0-.16,0-.16-8.31.15-13.14-12.32-13.49-19.26,0,0,6.8,2.97,6.8,2.97-3.2,2.7-6.33,5.73-8.75,9.2-3.2,4.5-5.64,9.52-7.6,14.65-3.4,8.98-5.4,19.22-2.21,28.52,1.19,4.54-5.44,4.02-8,3.21-5.57-1.55-10.71-5.35-12.09-11.27l7.79,1.17c-.81.81-1.69,1.63-2.35,2.6-4.22,6.67-7.16,15.41-4.52,23.14,1.12,3.27-3.61,5.15-5.04,1.98-2.26-5.42-2.21-11.37-1.14-16.97.98-5.62,3.45-10.7,5.84-15.84,1.41-2.89,5.83-2.84,7.2.03,0,0,.59,1.15.59,1.15,1.96,3.37,3.8,9.66,8.65,9.14,0,0-1.88,3.46-1.88,3.46-6.1-16.55-1.66-35.41,8.56-49.36,1.09-1.5,2.6-3.54,3.79-4.97,1.75-2.17,3.65-4.26,5.79-6.1,1.72-1.48,4.32-1.29,5.8.44.63.74.96,1.63.99,2.53.11,2.64.73,5.68,1.76,8.38.8,2.09,1.82,4.22,3.42,5.54,0,0,0-.16,0-.16l-2.96,3.08c.04-2.81.2-5.62.45-8.42,1.3-21.07,10.04-39.03,27.77-51.07,8.02-5.33,21.79-12.66,31.11-7.14,15.42,9.9,18.36,35.68,16.58,52.36-2.89,27.76-16.22,55.57-40.34,70.84-8.39,5.97-19.16,6.84-29.11,6.36-.87-.03-2.53-.13-3.38-.17-.1-.01-.2.01.05-.07l1.6-3.88c.17.17.65.63,1.16,1.01,4.04,2.99,9.09,5.27,13.85,6.65,2.16.9,3.18,3.39,2.28,5.55-3.5,5.84-18.66,9.39-25.11,10.43-8.26,1.13-17.25,2.03-25-1.98-2.86-1.72-.52-5.98,2.45-4.52h0Z"/>
      </g>
      <path class="cls-2" d="M39.35,142.56c34.65-11.11,63.6-37.84,83.98-67.51,6.76-10.2,12.5-21.17,15.9-32.79.43-1.54,2.04-2.44,3.57-1.98,1.5.44,2.36,1.99,1.97,3.49-10.46,36.4-37.9,68.24-68.16,90.15-10.5,7.36-21.91,13.71-34.44,17.79-2.51.82-5.22-.55-6.03-3.07-.84-2.56.63-5.33,3.22-6.08h0Z"/>
    </g>
  </g>
</svg>