<svg width="15" height="19" viewBox="0 0 15 19" fill="none" xmlns="http://www.w3.org/2000/svg">
<path d="M8.25 6.41667H13.2917L8.25 1.375V6.41667ZM1.83333 0H9.16667L14.6667 5.5V16.5C14.6667 16.9862 14.4735 17.4525 14.1297 17.7964C13.7859 18.1402 13.3196 18.3333 12.8333 18.3333H1.83333C1.3471 18.3333 0.880787 18.1402 0.536971 17.7964C0.193154 17.4525 0 16.9862 0 16.5V1.83333C0 1.3471 0.193154 0.880787 0.536971 0.536971C0.880787 0.193154 1.3471 0 1.83333 0ZM6.3525 9.57C6.72833 10.395 7.205 11.0733 7.755 11.5408L8.13083 11.8342C7.33333 11.9808 6.23333 12.2375 5.06917 12.6867L4.96833 12.7233L5.42667 11.77C5.83917 10.9725 6.14167 10.2483 6.3525 9.57ZM12.2925 13.0625C12.4575 12.8975 12.54 12.6867 12.5492 12.4575C12.5767 12.2742 12.5308 12.1 12.4392 11.9533C12.1733 11.5225 11.4858 11.3208 10.3492 11.3208L9.16667 11.385L8.36917 10.8533C7.79167 10.3767 7.26917 9.5425 6.9025 8.50667L6.93917 8.37833C7.24167 7.15917 7.52583 5.68333 6.92083 5.07833C6.84683 5.00648 6.7593 4.95003 6.66331 4.91226C6.56732 4.8745 6.46479 4.85617 6.36167 4.85833H6.14167C5.8025 4.85833 5.5 5.21583 5.4175 5.56417C5.07833 6.78333 5.28 7.4525 5.61917 8.56167V8.57083C5.39 9.3775 5.09667 10.3125 4.62917 11.2567L3.74917 12.9067L2.93333 13.3558C1.83333 14.0433 1.31083 14.8133 1.21 15.2992C1.17333 15.4733 1.19167 15.6292 1.25583 15.7942L1.28333 15.84L1.72333 16.1242L2.12667 16.225C2.86917 16.225 3.7125 15.3542 4.84917 13.4108L5.01417 13.3467C5.95833 13.0442 7.13167 12.8333 8.70833 12.6592C9.6525 13.1267 10.7617 13.3375 11.4583 13.3375C11.8617 13.3375 12.1367 13.2367 12.2925 13.0625ZM11.9167 12.4117L11.9992 12.5125C11.99 12.6042 11.9625 12.6133 11.9167 12.6317H11.88L11.7058 12.65C11.2842 12.65 10.6333 12.4758 9.96417 12.1825C10.0467 12.0908 10.0833 12.0908 10.175 12.0908C11.4583 12.0908 11.825 12.32 11.9167 12.4117ZM3.51083 13.75C2.915 14.8408 2.37417 15.4458 1.96167 15.5833C2.0075 15.235 2.42 14.63 3.07083 14.0342L3.51083 13.75ZM6.27917 7.41583C6.06833 6.59083 6.05917 5.92167 6.215 5.53667L6.27917 5.42667L6.41667 5.4725C6.5725 5.6925 6.59083 5.98583 6.49917 6.48083L6.47167 6.6275L6.325 7.37917L6.27917 7.41583Z" fill="#EF5350"/>
</svg>
