<svg width="15" height="19" viewBox="0 0 15 19" fill="none" xmlns="http://www.w3.org/2000/svg">
<path d="M8.24995 6.41666H13.2917L8.24995 1.375V6.41666ZM1.83333 0H9.16665L14.6667 5.5V16.5C14.6667 16.9862 14.4736 17.4525 14.1297 17.7964C13.7859 18.1402 13.3195 18.3333 12.8333 18.3333H1.83333C1.3471 18.3333 0.88079 18.1402 0.53697 17.7964C0.19315 17.4525 0 16.9862 0 16.5V1.83333C0 1.3471 0.19315 0.88078 0.53697 0.53697C0.88079 0.19315 1.3471 0 1.83333 0ZM6.35245 9.57C6.72835 10.395 7.20495 11.0733 7.75495 11.5408L8.13085 11.8342C7.33335 11.9808 6.23333 12.2375 5.06916 12.6867L4.96833 12.7233L5.42666 11.77C5.83916 10.9725 6.14166 10.2483 6.35245 9.57ZM12.2924 13.0625C12.4574 12.8975 12.54 12.6867 12.5492 12.4575C12.5767 12.2742 12.5308 12.1 12.4391 11.9533C12.1733 11.5225 11.4858 11.3208 10.3491 11.3208L9.16665 11.385L8.36915 10.8533C7.79165 10.3767 7.26915 9.5425 6.90245 8.5067L6.93915 8.3783C7.24165 7.15916 7.52585 5.68333 6.92085 5.07833C6.84685 5.00647 6.75925 4.95002 6.66335 4.91226C6.56735 4.87449 6.46475 4.85616 6.36165 4.85833H6.14166C5.8025 4.85833 5.5 5.21583 5.4175 5.56416C5.07833 6.78333 5.28 7.4525 5.61916 8.5617V8.5708C5.39 9.3775 5.09666 10.3125 4.62917 11.2567L3.74917 12.9067L2.93333 13.3558C1.83333 14.0433 1.31083 14.8133 1.21 15.2992C1.17333 15.4733 1.19166 15.6292 1.25583 15.7942L1.28333 15.84L1.72333 16.1242L2.12666 16.225C2.86916 16.225 3.7125 15.3542 4.84916 13.4108L5.01416 13.3467C5.95833 13.0442 7.13165 12.8333 8.70835 12.6592C9.65245 13.1267 10.7617 13.3375 11.4584 13.3375C11.8617 13.3375 12.1366 13.2367 12.2924 13.0625ZM11.9166 12.4117L11.9992 12.5125C11.99 12.6042 11.9624 12.6133 11.9166 12.6317H11.8799L11.7058 12.65C11.2841 12.65 10.6334 12.4758 9.96415 12.1825C10.0467 12.0908 10.0833 12.0908 10.1749 12.0908C11.4583 12.0908 11.8249 12.32 11.9166 12.4117ZM3.51083 13.75C2.915 14.8408 2.37416 15.4458 1.96166 15.5833C2.0075 15.235 2.42 14.63 3.07083 14.0342L3.51083 13.75ZM6.27917 7.41583C6.06833 6.59083 6.05916 5.92166 6.215 5.53666L6.27917 5.42666L6.41665 5.4725C6.57245 5.6925 6.59085 5.98583 6.49915 6.48083L6.47165 6.6275L6.325 7.37916L6.27917 7.41583Z" fill="white"/>
</svg>
