<?xml version="1.0" encoding="UTF-8"?>
<svg id="Layer_2" data-name="Layer 2" xmlns="http://www.w3.org/2000/svg" viewBox="0 0 290.29 70.65">
  <defs>
    <style>
      .cls-1 {
        fill: #fff;
        fill-rule: evenodd;
      }
    </style>
  </defs>
  <g id="Layer_1-2" data-name="Layer 1">
    <polygon class="cls-1" points="227.55 35.64 235.24 35.64 235.24 32.42 227.55 32.42 227.55 26.62 235.7 26.62 235.7 23.37 223.72 23.37 223.72 45.6 236.19 45.6 236.19 42.35 227.55 42.35 227.55 35.64"/>
    <path class="cls-1" d="M250.88,25.02c-1.35-1.19-3.44-1.79-6.22-1.79-1.94,0-3.7.14-5.38.43l-.21.04v21.91h3.8v-8.46c.55.08,1.14.09,1.62.09,1.06,0,2.08-.13,3.02-.38,1.04-.27,1.95-.69,2.72-1.24.85-.61,1.52-1.38,1.97-2.28.5-.99.75-2.15.75-3.45,0-2.01-.73-3.73-2.07-4.87M244.49,34.12c-.65,0-1.19-.02-1.62-.11v-7.55c.41-.07,1.1-.16,1.99-.16,2.71,0,4.26,1.36,4.26,3.73,0,2.6-1.69,4.09-4.63,4.09"/>
    <path class="cls-1" d="M194.07,23.37h-4.44l-6.87,22.23h3.93l1.89-6.38h6.35l1.98,6.38h4.02l-6.82-22.05-.05-.18ZM190.91,30.8c.27-1,.53-2.1.77-3.16.02-.08.04-.16.05-.24.26,1.06.56,2.27.88,3.4l1.63,5.39h-4.99l1.65-5.38h0Z"/>
    <path class="cls-1" d="M179.6,23.37h-4.57l-3.24,9.7h0c-.76,2.38-1.38,4.57-1.9,6.68-.48-2.01-1.07-4.15-1.82-6.64h0s-3.1-9.57-3.1-9.57l-.06-.17h-4.54l-.02.23-1.49,21.74-.02.26h3.6l.5-9.2c.17-3.04.29-5.52.36-7.52.48,2.05,1.11,4.3,1.86,6.7l3.07,9.82h2.86l3.33-10.01c.83-2.48,1.5-4.67,2.05-6.62.03,2.23.15,4.74.26,7l.02.46.5,9.37h3.71l-1.34-22v-.23Z"/>
    <path class="cls-1" d="M271.37,26.3c-1.69-2.12-4.09-3.24-6.96-3.24-5.81,0-9.72,4.65-9.72,11.57,0,1.64.22,3.18.66,4.56.43,1.37,1.07,2.57,1.89,3.57.83,1.01,1.83,1.79,2.98,2.33,1.18.55,2.49.83,3.9.83s2.66-.25,3.82-.74c1.19-.5,2.22-1.24,3.08-2.21.89-1,1.58-2.22,2.04-3.64.49-1.48.74-3.18.74-5.04,0-1.58-.21-3.07-.62-4.42-.42-1.36-1.03-2.56-1.82-3.56M264.24,42.72c-1.69,0-3.11-.85-4.11-2.45-.93-1.48-1.44-3.52-1.44-5.73s.49-4.26,1.38-5.74c1-1.67,2.46-2.55,4.23-2.55,2.17,0,3.46,1.37,4.15,2.53.89,1.48,1.37,3.47,1.37,5.63,0,2.32-.51,4.41-1.43,5.89-.99,1.59-2.43,2.43-4.15,2.43"/>
    <polygon class="cls-1" points="274.61 23.37 274.61 26.67 280.52 26.67 280.52 45.6 284.35 45.6 284.35 26.67 290.29 26.67 290.29 23.37 274.61 23.37"/>
    <path class="cls-1" d="M209.25,23.23c-2.32,0-4.35.25-5.64.46l-.21.03v21.79l.21.03c1.26.17,2.83.26,4.8.26,3.99,0,7.16-1.02,9.16-2.93,1.02-.98,1.81-2.2,2.36-3.63.58-1.52.87-3.27.87-5.2v-.03c0-3.01-.74-5.44-2.2-7.23-1.92-2.35-5.07-3.54-9.35-3.54M214.61,40.75c-1.28,1.27-3.1,1.92-5.4,1.92h-.07c-.78,0-1.43-.03-1.91-.08v-16.06c.52-.09,1.31-.18,2.34-.18,4.67,0,7.24,2.75,7.24,7.75,0,2.97-.74,5.21-2.2,6.66"/>
    <polygon class="cls-1" points="115.49 32.34 107.03 32.34 107.03 23.37 103.21 23.37 103.21 45.6 107.03 45.6 107.03 35.73 115.49 35.73 115.49 45.6 119.31 45.6 119.31 23.37 115.49 23.37 115.49 32.34"/>
    <path class="cls-1" d="M155.33,39.4c-.28-1.23-.65-2.19-1.15-2.93-.44-.65-.96-1.14-1.6-1.46.98-.45,1.81-1.1,2.43-1.9.79-1.03,1.19-2.26,1.19-3.64,0-.91-.16-1.76-.46-2.51-.31-.77-.77-1.42-1.37-1.93-.71-.63-1.59-1.08-2.67-1.38-1.03-.28-2.26-.42-3.75-.42-1.82,0-3.78.17-5.38.46l-.2.04v21.88h3.79v-9.19h1.76c2.18,0,3.16,1,3.75,3.8.53,2.61,1.06,4.58,1.4,5.25l.07.14h4.01l-.19-.36c-.42-.81-.98-3.13-1.61-5.84M152.37,29.8c0,2.21-1.66,3.64-4.23,3.64h-1.99v-7.02c.46-.09,1.21-.15,2.08-.15,1.25,0,2.24.26,2.94.79.8.59,1.2,1.51,1.2,2.74"/>
    <path class="cls-1" d="M98.22,25.02c-1.35-1.19-3.44-1.79-6.22-1.79-1.94,0-3.7.14-5.38.43l-.21.04v21.91h3.8v-8.46c.55.08,1.14.09,1.62.09,1.06,0,2.08-.13,3.02-.38,1.04-.27,1.95-.69,2.72-1.24.85-.61,1.52-1.38,1.97-2.28.5-.99.75-2.15.75-3.45,0-2.01-.73-3.73-2.07-4.87M91.83,34.12c-.65,0-1.19-.02-1.62-.11v-7.55c.41-.07,1.1-.16,1.99-.16,2.71,0,4.26,1.36,4.26,3.73,0,2.6-1.69,4.09-4.63,4.09"/>
    <path class="cls-1" d="M133.03,23.37h-4.44l-6.87,22.23h3.93l1.89-6.38h6.35l1.98,6.38h4.02l-6.82-22.05-.05-.18ZM129.87,30.8c.27-1,.53-2.1.77-3.16.02-.08.04-.16.05-.24.26,1.06.56,2.27.88,3.4l1.63,5.39h-4.99l1.65-5.38h0Z"/>
    <polygon class="cls-1" points="27.61 3.06 23.12 3.06 23.12 25.15 .07 25.15 .07 39.23 27.61 39.23 27.61 3.06"/>
    <polygon class="cls-1" points="29.89 67.76 44.54 67.76 44.54 45.67 67.59 45.67 67.59 41.42 29.89 41.42 29.89 67.76"/>
    <path class="cls-1" d="M47.62,25C65.5,11.73,79.9-.54,51.85.02h-28.73v.97h21.91c19.9.38,12.48,11.91-.14,23.84-.11.11-.23.22-.35.33V3.06h-14.65v35.12s-.03.02-.04.03l-3.91,3.21H.07v4.25h20.69l-4.46,3.66-.09.07c-8.06,6.63-28.6,20.6-5.8,21.16.65.02,1.34,0,2.06.01.7,0,1.41.03,2.17.05.55.01,1.12.02,1.69,0h6.78s21.42,0,21.42,0v-.97l-10.51.02h-11.36c-.16-.01-.29-.01-.45-.02-20.33-.56-3.07-20.25.9-24v22.08h4.49v-26.33l.09-.09c.75-.71,1.5-1.44,2.3-2.08.01-.01.02-.02.04-.03h37.55v-14.08h-20.17l.1-.07.11-.08Z"/>
  </g>
</svg>