<svg width="24" height="24" viewBox="0 0 24 24" fill="none" xmlns="http://www.w3.org/2000/svg">
<path d="M3.69094 6.292C5.09394 4.771 7.21694 4 9.99994 4H10.9999V6.819L10.1959 6.98C8.82594 7.254 7.87294 7.793 7.36294 8.584C7.04994 9.071 6.94694 9.591 6.92494 10H8.99994H9.99994C10.5529 10 10.9999 10.447 10.9999 11V18C10.9999 19.103 10.1029 20 8.99994 20H2.99994C2.44694 20 1.99994 19.553 1.99994 19V14L2.00294 11.081C1.99394 10.97 1.80394 8.34 3.69094 6.292ZM19.9999 20H13.9999C13.4469 20 12.9999 19.553 12.9999 19V14L13.0029 11.081C12.9939 10.97 12.8039 8.34 14.6909 6.292C16.0939 4.771 18.2169 4 20.9999 4H21.9999V6.819L21.1959 6.98C19.8259 7.254 18.8729 7.793 18.3629 8.584C18.0499 9.071 17.9469 9.591 17.9249 10H19.9999H20.9999C21.5529 10 21.9999 10.447 21.9999 11V18C21.9999 19.103 21.1029 20 19.9999 20Z" fill="#FFC52F"/>
</svg>
