<svg width="186" height="148" viewBox="0 0 186 148" fill="none" xmlns="http://www.w3.org/2000/svg">
<path d="M15.7798 21.201C28.8236 7.13175 48.5613 0 74.4351 0H83.7321V26.0757L76.2573 27.565C63.5203 30.0995 54.6602 35.0852 49.9187 42.402C47.0087 46.9067 46.0511 51.7168 45.8466 55.5H65.138H74.4351C79.5764 55.5 83.7321 59.6348 83.7321 64.75V129.5C83.7321 139.703 75.3927 148 65.138 148H9.35554C4.21425 148 0.0584584 143.865 0.0584584 138.75V92.5L0.0863499 65.4993C0.00267618 64.4725 -1.76377 40.145 15.7798 21.201ZM167.406 148H111.623C106.482 148 102.326 143.865 102.326 138.75V92.5L102.354 65.4993C102.271 64.4725 100.504 40.145 118.048 21.201C131.091 7.13175 150.829 0 176.703 0H186V26.0757L178.525 27.565C165.788 30.0995 156.928 35.0852 152.187 42.402C149.277 46.9067 148.319 51.7168 148.114 55.5H167.406H176.703C181.844 55.5 186 59.6348 186 64.75V129.5C186 139.703 177.661 148 167.406 148Z" fill="#F4F4FF"/>
</svg>
